<mxfile host="app.diagrams.net" agent="Mozilla/5.0 (Windows NT 10.0; Win64; x64; rv:139.0) Gecko/20100101 Firefox/139.0" version="28.2.3">
  <diagram name="Страница — 1" id="VJM2AuPIefYYTYtJUDaH">
    <mxGraphModel dx="1392" dy="747" grid="1" gridSize="10" guides="1" tooltips="1" connect="1" arrows="1" fold="1" page="1" pageScale="1" pageWidth="827" pageHeight="1169" math="0" shadow="0">
      <root>
        <mxCell id="0" />
        <mxCell id="1" parent="0" />
        <UserObject label="" plantUmlData="{&#xa;  &quot;data&quot;: &quot;@startuml\ntitle Соотношение функциональных и нефункциональных требований\n\nskinparam defaultFontName Arial\nskinparam defaultFontSize 14\nskinparam rectangle {\n  BorderColor Black\n  BackgroundColor White\n  RoundCorner 10\n  Padding 5\n  MinimumWidth 180\n  MaximumWidth 180\n}\n\nleft to right direction\n\npackage \&quot;Функциональные требования\&quot; {\n    rectangle \&quot;1. Ввод исходных данных\&quot;\n    rectangle \&quot;2. Выбор метода оптимизации\&quot;\n    rectangle \&quot;3. Вычислительный процесс\&quot;\n    rectangle \&quot;4. Визуализация\&quot;\n    rectangle \&quot;5. Отображение результатов\&quot;\n}\n\npackage \&quot;Нефункциональные требования\&quot; {\n    rectangle \&quot;1. Точность\&quot;\n    rectangle \&quot;2. Производительность\&quot;\n    rectangle \&quot;3. Устойчивость\&quot;\n    rectangle \&quot;4. Масштабируемость\&quot;\n    rectangle \&quot;5. Удобство использования\&quot;\n}\n@enduml\n\n&quot;,&#xa;  &quot;format&quot;: &quot;svg&quot;&#xa;}" id="uAlbVnMMJaa76xt25_W9-12">
          <mxCell style="shape=image;noLabel=1;verticalAlign=top;aspect=fixed;imageAspect=0;image=data:image/svg+xml,PHN2ZyB4bWxucz0iaHR0cDovL3d3dy53My5vcmcvMjAwMC9zdmciIHhtbG5zOnhsaW5rPSJodHRwOi8vd3d3LnczLm9yZy8xOTk5L3hsaW5rIiBjb250ZW50U3R5bGVUeXBlPSJ0ZXh0L2NzcyIgZGF0YS1kaWFncmFtLXR5cGU9IkRFU0NSSVBUSU9OIiBoZWlnaHQ9IjUyMnB4IiBwcmVzZXJ2ZUFzcGVjdFJhdGlvPSJub25lIiBzdHlsZT0id2lkdGg6NTE2cHg7aGVpZ2h0OjUyMnB4O2JhY2tncm91bmQ6I0ZGRkZGRjsiIHZlcnNpb249IjEuMSIgdmlld0JveD0iMCAwIDUxNiA1MjIiIHdpZHRoPSI1MTZweCIgem9vbUFuZFBhbj0ibWFnbmlmeSI+PHRpdGxlPiYjMTA1NzsmIzEwODY7JiMxMDg2OyYjMTA5MDsmIzEwODU7JiMxMDg2OyYjMTA5NjsmIzEwNzc7JiMxMDg1OyYjMTA4MDsmIzEwNzc7ICYjMTA5MjsmIzEwOTE7JiMxMDg1OyYjMTA4MjsmIzEwOTQ7JiMxMDgwOyYjMTA4NjsmIzEwODU7JiMxMDcyOyYjMTA4MzsmIzExMDA7JiMxMDg1OyYjMTA5OTsmIzEwOTM7ICYjMTA4MDsgJiMxMDg1OyYjMTA3NzsmIzEwOTI7JiMxMDkxOyYjMTA4NTsmIzEwODI7JiMxMDk0OyYjMTA4MDsmIzEwODY7JiMxMDg1OyYjMTA3MjsmIzEwODM7JiMxMTAwOyYjMTA4NTsmIzEwOTk7JiMxMDkzOyAmIzEwOTA7JiMxMDg4OyYjMTA3NzsmIzEwNzM7JiMxMDg2OyYjMTA3NDsmIzEwNzI7JiMxMDg1OyYjMTA4MDsmIzEwODE7PC90aXRsZT48ZGVmcy8+PGc+PHRleHQgZmlsbD0iIzAwMDAwMCIgZm9udC1mYW1pbHk9IkFyaWFsIiBmb250LXNpemU9IjE0IiBmb250LXdlaWdodD0iYm9sZCIgbGVuZ3RoQWRqdXN0PSJzcGFjaW5nIiB0ZXh0TGVuZ3RoPSIzOTIiIHg9IjU1IiB5PSIyMy4yMzQ0Ij4mIzEwNTc7JiMxMDg2OyYjMTA4NjsmIzEwOTA7JiMxMDg1OyYjMTA4NjsmIzEwOTY7JiMxMDc3OyYjMTA4NTsmIzEwODA7JiMxMDc3OyAmIzEwOTI7JiMxMDkxOyYjMTA4NTsmIzEwODI7JiMxMDk0OyYjMTA4MDsmIzEwODY7JiMxMDg1OyYjMTA3MjsmIzEwODM7JiMxMTAwOyYjMTA4NTsmIzEwOTk7JiMxMDkzOyAmIzEwODA7ICYjMTA4NTsmIzEwNzc7JiMxMDkyOyYjMTA5MTsmIzEwODU7JiMxMDgyOyYjMTA5NDsmIzEwODA7JiMxMDg2OyYjMTA4NTsmIzEwNzI7JiMxMDgzOyYjMTEwMDsmIzEwODU7JiMxMDk5OyYjMTA5MzsgJiMxMDkwOyYjMTA4ODsmIzEwNzc7JiMxMDczOyYjMTA4NjsmIzEwNzQ7JiMxMDcyOyYjMTA4NTsmIzEwODA7JiMxMDgxOzwvdGV4dD48IS0tY2x1c3RlciA/Pz8/Pz8/Pz8/Pz8/PyA/Pz8/Pz8/Pz8/LS0+PGcgY2xhc3M9ImNsdXN0ZXIiIGRhdGEtZW50aXR5PSImIzEwNjA7JiMxMDkxOyYjMTA4NTsmIzEwODI7JiMxMDk0OyYjMTA4MDsmIzEwODY7JiMxMDg1OyYjMTA3MjsmIzEwODM7JiMxMTAwOyYjMTA4NTsmIzEwOTk7JiMxMDc3OyAmIzEwOTA7JiMxMDg4OyYjMTA3NzsmIzEwNzM7JiMxMDg2OyYjMTA3NDsmIzEwNzI7JiMxMDg1OyYjMTA4MDsmIzExMDM7IiBkYXRhLXNvdXJjZS1saW5lPSIxNiIgZGF0YS11aWQ9ImVudDAwMDIiIGlkPSJjbHVzdGVyXyYjMTA2MDsmIzEwOTE7JiMxMDg1OyYjMTA4MjsmIzEwOTQ7JiMxMDgwOyYjMTA4NjsmIzEwODU7JiMxMDcyOyYjMTA4MzsmIzExMDA7JiMxMDg1OyYjMTA5OTsmIzEwNzc7ICYjMTA5MDsmIzEwODg7JiMxMDc3OyYjMTA3MzsmIzEwODY7JiMxMDc0OyYjMTA3MjsmIzEwODU7JiMxMDgwOyYjMTEwMzsiPjxwYXRoIGQ9Ik04LjUsMjkwLjk4NDQgTDE4NC41LDI5MC45ODQ0IEEzLjc1LDMuNzUgMCAwIDEgMTg3LDI5My40ODQ0IEwxOTQsMzExLjk2ODggTDUwNi41LDMxMS45Njg4IEEyLjUsMi41IDAgMCAxIDUwOSwzMTQuNDY4OCBMNTA5LDUxMy40ODQ0IEEyLjUsMi41IDAgMCAxIDUwNi41LDUxNS45ODQ0IEw4LjUsNTE1Ljk4NDQgQTIuNSwyLjUgMCAwIDEgNiw1MTMuNDg0NCBMNiwyOTMuNDg0NCBBMi41LDIuNSAwIDAgMSA4LjUsMjkwLjk4NDQiIGZpbGw9Im5vbmUiIHN0eWxlPSJzdHJva2U6IzAwMDAwMDtzdHJva2Utd2lkdGg6MS41OyIvPjxsaW5lIHN0eWxlPSJzdHJva2U6IzAwMDAwMDtzdHJva2Utd2lkdGg6MS41OyIgeDE9IjYiIHgyPSIxOTQiIHkxPSIzMTEuOTY4OCIgeTI9IjMxMS45Njg4Ii8+PHRleHQgZmlsbD0iIzAwMDAwMCIgZm9udC1mYW1pbHk9IkFyaWFsIiBmb250LXNpemU9IjE0IiBmb250LXdlaWdodD0iYm9sZCIgbGVuZ3RoQWRqdXN0PSJzcGFjaW5nIiB0ZXh0TGVuZ3RoPSIxNzUiIHg9IjEwIiB5PSIzMDYuMjE4OCI+JiMxMDYwOyYjMTA5MTsmIzEwODU7JiMxMDgyOyYjMTA5NDsmIzEwODA7JiMxMDg2OyYjMTA4NTsmIzEwNzI7JiMxMDgzOyYjMTEwMDsmIzEwODU7JiMxMDk5OyYjMTA3NzsgJiMxMDkwOyYjMTA4ODsmIzEwNzc7JiMxMDczOyYjMTA4NjsmIzEwNzQ7JiMxMDcyOyYjMTA4NTsmIzEwODA7JiMxMTAzOzwvdGV4dD48L2c+PCEtLWNsdXN0ZXIgPz8/Pz8/Pz8/Pz8/Pz8/PyA/Pz8/Pz8/Pz8/LS0+PGcgY2xhc3M9ImNsdXN0ZXIiIGRhdGEtZW50aXR5PSImIzEwNTM7JiMxMDc3OyYjMTA5MjsmIzEwOTE7JiMxMDg1OyYjMTA4MjsmIzEwOTQ7JiMxMDgwOyYjMTA4NjsmIzEwODU7JiMxMDcyOyYjMTA4MzsmIzExMDA7JiMxMDg1OyYjMTA5OTsmIzEwNzc7ICYjMTA5MDsmIzEwODg7JiMxMDc3OyYjMTA3MzsmIzEwODY7JiMxMDc0OyYjMTA3MjsmIzEwODU7JiMxMDgwOyYjMTEwMzsiIGRhdGEtc291cmNlLWxpbmU9IjI0IiBkYXRhLXVpZD0iZW50MDAwOCIgaWQ9ImNsdXN0ZXJfJiMxMDUzOyYjMTA3NzsmIzEwOTI7JiMxMDkxOyYjMTA4NTsmIzEwODI7JiMxMDk0OyYjMTA4MDsmIzEwODY7JiMxMDg1OyYjMTA3MjsmIzEwODM7JiMxMTAwOyYjMTA4NTsmIzEwOTk7JiMxMDc3OyAmIzEwOTA7JiMxMDg4OyYjMTA3NzsmIzEwNzM7JiMxMDg2OyYjMTA3NDsmIzEwNzI7JiMxMDg1OyYjMTA4MDsmIzExMDM7Ij48cGF0aCBkPSJNMjkuNSw0MS45ODQ0IEwyMTkuNSw0MS45ODQ0IEEzLjc1LDMuNzUgMCAwIDEgMjIyLDQ0LjQ4NDQgTDIyOSw2Mi45Njg4IEw1MDMsNjIuOTY4OCBBMi41LDIuNSAwIDAgMSA1MDUuNSw2NS40Njg4IEw1MDUuNSwyNjQuNDg0NCBBMi41LDIuNSAwIDAgMSA1MDMsMjY2Ljk4NDQgTDI5LjUsMjY2Ljk4NDQgQTIuNSwyLjUgMCAwIDEgMjcsMjY0LjQ4NDQgTDI3LDQ0LjQ4NDQgQTIuNSwyLjUgMCAwIDEgMjkuNSw0MS45ODQ0IiBmaWxsPSJub25lIiBzdHlsZT0ic3Ryb2tlOiMwMDAwMDA7c3Ryb2tlLXdpZHRoOjEuNTsiLz48bGluZSBzdHlsZT0ic3Ryb2tlOiMwMDAwMDA7c3Ryb2tlLXdpZHRoOjEuNTsiIHgxPSIyNyIgeDI9IjIyOSIgeTE9IjYyLjk2ODgiIHkyPSI2Mi45Njg4Ii8+PHRleHQgZmlsbD0iIzAwMDAwMCIgZm9udC1mYW1pbHk9IkFyaWFsIiBmb250LXNpemU9IjE0IiBmb250LXdlaWdodD0iYm9sZCIgbGVuZ3RoQWRqdXN0PSJzcGFjaW5nIiB0ZXh0TGVuZ3RoPSIxODkiIHg9IjMxIiB5PSI1Ny4yMTg4Ij4mIzEwNTM7JiMxMDc3OyYjMTA5MjsmIzEwOTE7JiMxMDg1OyYjMTA4MjsmIzEwOTQ7JiMxMDgwOyYjMTA4NjsmIzEwODU7JiMxMDcyOyYjMTA4MzsmIzExMDA7JiMxMDg1OyYjMTA5OTsmIzEwNzc7ICYjMTA5MDsmIzEwODg7JiMxMDc3OyYjMTA3MzsmIzEwODY7JiMxMDc0OyYjMTA3MjsmIzEwODU7JiMxMDgwOyYjMTEwMzs8L3RleHQ+PC9nPjwhLS1lbnRpdHkgMS4gPz8/PyA/Pz8/Pz8/PyA/Pz8/Pz8tLT48ZyBjbGFzcz0iZW50aXR5IiBkYXRhLWVudGl0eT0iMS4gJiMxMDQyOyYjMTA3NDsmIzEwODY7JiMxMDc2OyAmIzEwODA7JiMxMDg5OyYjMTA5MzsmIzEwODY7JiMxMDc2OyYjMTA4NTsmIzEwOTk7JiMxMDkzOyAmIzEwNzY7JiMxMDcyOyYjMTA4NTsmIzEwODU7JiMxMDk5OyYjMTA5MzsiIGRhdGEtc291cmNlLWxpbmU9IjE3IiBkYXRhLXVpZD0iZW50MDAwMyIgaWQ9ImVudGl0eV8xLiAmIzEwNDI7JiMxMDc0OyYjMTA4NjsmIzEwNzY7ICYjMTA4MDsmIzEwODk7JiMxMDkzOyYjMTA4NjsmIzEwNzY7JiMxMDg1OyYjMTA5OTsmIzEwOTM7ICYjMTA3NjsmIzEwNzI7JiMxMDg1OyYjMTA4NTsmIzEwOTk7JiMxMDkzOyI+PHJlY3QgZmlsbD0iI0ZGRkZGRiIgaGVpZ2h0PSIzNC45ODQ0IiByeD0iNSIgcnk9IjUiIHN0eWxlPSJzdHJva2U6IzAwMDAwMDtzdHJva2Utd2lkdGg6MC41OyIgd2lkdGg9IjE4MSIgeD0iMzYiIHk9IjQ2NC40ODQ0Ii8+PHRleHQgZmlsbD0iIzAwMDAwMCIgZm9udC1mYW1pbHk9IkFyaWFsIiBmb250LXNpemU9IjE0IiBsZW5ndGhBZGp1c3Q9InNwYWNpbmciIHRleHRMZW5ndGg9IjE2MSIgeD0iNDYiIHk9IjQ4Ny43MTg4Ij4xLiAmIzEwNDI7JiMxMDc0OyYjMTA4NjsmIzEwNzY7ICYjMTA4MDsmIzEwODk7JiMxMDkzOyYjMTA4NjsmIzEwNzY7JiMxMDg1OyYjMTA5OTsmIzEwOTM7ICYjMTA3NjsmIzEwNzI7JiMxMDg1OyYjMTA4NTsmIzEwOTk7JiMxMDkzOzwvdGV4dD48L2c+PCEtLWVudGl0eSAyLiA/Pz8/PyA/Pz8/Pz8gPz8/Pz8/Pz8/Pz8tLT48ZyBjbGFzcz0iZW50aXR5IiBkYXRhLWVudGl0eT0iMi4gJiMxMDQyOyYjMTA5OTsmIzEwNzM7JiMxMDg2OyYjMTA4ODsgJiMxMDg0OyYjMTA3NzsmIzEwOTA7JiMxMDg2OyYjMTA3NjsmIzEwNzI7ICYjMTA4NjsmIzEwODc7JiMxMDkwOyYjMTA4MDsmIzEwODQ7JiMxMDgwOyYjMTA3OTsmIzEwNzI7JiMxMDk0OyYjMTA4MDsmIzEwODA7IiBkYXRhLXNvdXJjZS1saW5lPSIxOCIgZGF0YS11aWQ9ImVudDAwMDQiIGlkPSJlbnRpdHlfMi4gJiMxMDQyOyYjMTA5OTsmIzEwNzM7JiMxMDg2OyYjMTA4ODsgJiMxMDg0OyYjMTA3NzsmIzEwOTA7JiMxMDg2OyYjMTA3NjsmIzEwNzI7ICYjMTA4NjsmIzEwODc7JiMxMDkwOyYjMTA4MDsmIzEwODQ7JiMxMDgwOyYjMTA3OTsmIzEwNzI7JiMxMDk0OyYjMTA4MDsmIzEwODA7Ij48cmVjdCBmaWxsPSIjRkZGRkZGIiBoZWlnaHQ9IjM0Ljk4NDQiIHJ4PSI1IiByeT0iNSIgc3R5bGU9InN0cm9rZTojMDAwMDAwO3N0cm9rZS13aWR0aDowLjU7IiB3aWR0aD0iMjA5IiB4PSIyMiIgeT0iMzk0LjQ4NDQiLz48dGV4dCBmaWxsPSIjMDAwMDAwIiBmb250LWZhbWlseT0iQXJpYWwiIGZvbnQtc2l6ZT0iMTQiIGxlbmd0aEFkanVzdD0ic3BhY2luZyIgdGV4dExlbmd0aD0iMTg5IiB4PSIzMiIgeT0iNDE3LjcxODgiPjIuICYjMTA0MjsmIzEwOTk7JiMxMDczOyYjMTA4NjsmIzEwODg7ICYjMTA4NDsmIzEwNzc7JiMxMDkwOyYjMTA4NjsmIzEwNzY7JiMxMDcyOyAmIzEwODY7JiMxMDg3OyYjMTA5MDsmIzEwODA7JiMxMDg0OyYjMTA4MDsmIzEwNzk7JiMxMDcyOyYjMTA5NDsmIzEwODA7JiMxMDgwOzwvdGV4dD48L2c+PCEtLWVudGl0eSAzLiA/Pz8/Pz8/Pz8/Pz8/PyA/Pz8/Pz8/LS0+PGcgY2xhc3M9ImVudGl0eSIgZGF0YS1lbnRpdHk9IjMuICYjMTA0MjsmIzEwOTk7JiMxMDk1OyYjMTA4MDsmIzEwODk7JiMxMDgzOyYjMTA4MDsmIzEwOTA7JiMxMDc3OyYjMTA4MzsmIzExMDA7JiMxMDg1OyYjMTA5OTsmIzEwODE7ICYjMTA4NzsmIzEwODg7JiMxMDg2OyYjMTA5NDsmIzEwNzc7JiMxMDg5OyYjMTA4OTsiIGRhdGEtc291cmNlLWxpbmU9IjE5IiBkYXRhLXVpZD0iZW50MDAwNSIgaWQ9ImVudGl0eV8zLiAmIzEwNDI7JiMxMDk5OyYjMTA5NTsmIzEwODA7JiMxMDg5OyYjMTA4MzsmIzEwODA7JiMxMDkwOyYjMTA3NzsmIzEwODM7JiMxMTAwOyYjMTA4NTsmIzEwOTk7JiMxMDgxOyAmIzEwODc7JiMxMDg4OyYjMTA4NjsmIzEwOTQ7JiMxMDc3OyYjMTA4OTsmIzEwODk7Ij48cmVjdCBmaWxsPSIjRkZGRkZGIiBoZWlnaHQ9IjM0Ljk4NDQiIHJ4PSI1IiByeT0iNSIgc3R5bGU9InN0cm9rZTojMDAwMDAwO3N0cm9rZS13aWR0aDowLjU7IiB3aWR0aD0iMTk1IiB4PSIyOSIgeT0iMzI0LjQ4NDQiLz48dGV4dCBmaWxsPSIjMDAwMDAwIiBmb250LWZhbWlseT0iQXJpYWwiIGZvbnQtc2l6ZT0iMTQiIGxlbmd0aEFkanVzdD0ic3BhY2luZyIgdGV4dExlbmd0aD0iMTc1IiB4PSIzOSIgeT0iMzQ3LjcxODgiPjMuICYjMTA0MjsmIzEwOTk7JiMxMDk1OyYjMTA4MDsmIzEwODk7JiMxMDgzOyYjMTA4MDsmIzEwOTA7JiMxMDc3OyYjMTA4MzsmIzExMDA7JiMxMDg1OyYjMTA5OTsmIzEwODE7ICYjMTA4NzsmIzEwODg7JiMxMDg2OyYjMTA5NDsmIzEwNzc7JiMxMDg5OyYjMTA4OTs8L3RleHQ+PC9nPjwhLS1lbnRpdHkgNC4gPz8/Pz8/Pz8/Pz8/LS0+PGcgY2xhc3M9ImVudGl0eSIgZGF0YS1lbnRpdHk9IjQuICYjMTA0MjsmIzEwODA7JiMxMDc5OyYjMTA5MTsmIzEwNzI7JiMxMDgzOyYjMTA4MDsmIzEwNzk7JiMxMDcyOyYjMTA5NDsmIzEwODA7JiMxMTAzOyIgZGF0YS1zb3VyY2UtbGluZT0iMjAiIGRhdGEtdWlkPSJlbnQwMDA2IiBpZD0iZW50aXR5XzQuICYjMTA0MjsmIzEwODA7JiMxMDc5OyYjMTA5MTsmIzEwNzI7JiMxMDgzOyYjMTA4MDsmIzEwNzk7JiMxMDcyOyYjMTA5NDsmIzEwODA7JiMxMTAzOyI+PHJlY3QgZmlsbD0iI0ZGRkZGRiIgaGVpZ2h0PSIzNC45ODQ0IiByeD0iNSIgcnk9IjUiIHN0eWxlPSJzdHJva2U6IzAwMDAwMDtzdHJva2Utd2lkdGg6MC41OyIgd2lkdGg9IjEyNSIgeD0iMzI5LjUiIHk9IjQ2NC40ODQ0Ii8+PHRleHQgZmlsbD0iIzAwMDAwMCIgZm9udC1mYW1pbHk9IkFyaWFsIiBmb250LXNpemU9IjE0IiBsZW5ndGhBZGp1c3Q9InNwYWNpbmciIHRleHRMZW5ndGg9IjEwNSIgeD0iMzM5LjUiIHk9IjQ4Ny43MTg4Ij40LiAmIzEwNDI7JiMxMDgwOyYjMTA3OTsmIzEwOTE7JiMxMDcyOyYjMTA4MzsmIzEwODA7JiMxMDc5OyYjMTA3MjsmIzEwOTQ7JiMxMDgwOyYjMTEwMzs8L3RleHQ+PC9nPjwhLS1lbnRpdHkgNS4gPz8/Pz8/Pz8/Pz8gPz8/Pz8/Pz8/Pz8tLT48ZyBjbGFzcz0iZW50aXR5IiBkYXRhLWVudGl0eT0iNS4gJiMxMDU0OyYjMTA5MDsmIzEwODY7JiMxMDczOyYjMTA4ODsmIzEwNzI7JiMxMDc4OyYjMTA3NzsmIzEwODU7JiMxMDgwOyYjMTA3NzsgJiMxMDg4OyYjMTA3NzsmIzEwNzk7JiMxMDkxOyYjMTA4MzsmIzExMDA7JiMxMDkwOyYjMTA3MjsmIzEwOTA7JiMxMDg2OyYjMTA3NDsiIGRhdGEtc291cmNlLWxpbmU9IjIxIiBkYXRhLXVpZD0iZW50MDAwNyIgaWQ9ImVudGl0eV81LiAmIzEwNTQ7JiMxMDkwOyYjMTA4NjsmIzEwNzM7JiMxMDg4OyYjMTA3MjsmIzEwNzg7JiMxMDc3OyYjMTA4NTsmIzEwODA7JiMxMDc3OyAmIzEwODg7JiMxMDc3OyYjMTA3OTsmIzEwOTE7JiMxMDgzOyYjMTEwMDsmIzEwOTA7JiMxMDcyOyYjMTA5MDsmIzEwODY7JiMxMDc0OyI+PHJlY3QgZmlsbD0iI0ZGRkZGRiIgaGVpZ2h0PSIzNC45ODQ0IiByeD0iNSIgcnk9IjUiIHN0eWxlPSJzdHJva2U6IzAwMDAwMDtzdHJva2Utd2lkdGg6MC41OyIgd2lkdGg9IjIwMiIgeD0iMjkxIiB5PSIzOTQuNDg0NCIvPjx0ZXh0IGZpbGw9IiMwMDAwMDAiIGZvbnQtZmFtaWx5PSJBcmlhbCIgZm9udC1zaXplPSIxNCIgbGVuZ3RoQWRqdXN0PSJzcGFjaW5nIiB0ZXh0TGVuZ3RoPSIxODIiIHg9IjMwMSIgeT0iNDE3LjcxODgiPjUuICYjMTA1NDsmIzEwOTA7JiMxMDg2OyYjMTA3MzsmIzEwODg7JiMxMDcyOyYjMTA3ODsmIzEwNzc7JiMxMDg1OyYjMTA4MDsmIzEwNzc7ICYjMTA4ODsmIzEwNzc7JiMxMDc5OyYjMTA5MTsmIzEwODM7JiMxMTAwOyYjMTA5MDsmIzEwNzI7JiMxMDkwOyYjMTA4NjsmIzEwNzQ7PC90ZXh0PjwvZz48IS0tZW50aXR5IDEuID8/Pz8/Pz8/LS0+PGcgY2xhc3M9ImVudGl0eSIgZGF0YS1lbnRpdHk9IjEuICYjMTA1ODsmIzEwODY7JiMxMDk1OyYjMTA4NTsmIzEwODY7JiMxMDg5OyYjMTA5MDsmIzExMDA7IiBkYXRhLXNvdXJjZS1saW5lPSIyNSIgZGF0YS11aWQ9ImVudDAwMDkiIGlkPSJlbnRpdHlfMS4gJiMxMDU4OyYjMTA4NjsmIzEwOTU7JiMxMDg1OyYjMTA4NjsmIzEwODk7JiMxMDkwOyYjMTEwMDsiPjxyZWN0IGZpbGw9IiNGRkZGRkYiIGhlaWdodD0iMzQuOTg0NCIgcng9IjUiIHJ5PSI1IiBzdHlsZT0ic3Ryb2tlOiMwMDAwMDA7c3Ryb2tlLXdpZHRoOjAuNTsiIHdpZHRoPSI5NyIgeD0iNzgiIHk9IjIxNS40ODQ0Ii8+PHRleHQgZmlsbD0iIzAwMDAwMCIgZm9udC1mYW1pbHk9IkFyaWFsIiBmb250LXNpemU9IjE0IiBsZW5ndGhBZGp1c3Q9InNwYWNpbmciIHRleHRMZW5ndGg9Ijc3IiB4PSI4OCIgeT0iMjM4LjcxODgiPjEuICYjMTA1ODsmIzEwODY7JiMxMDk1OyYjMTA4NTsmIzEwODY7JiMxMDg5OyYjMTA5MDsmIzExMDA7PC90ZXh0PjwvZz48IS0tZW50aXR5IDIuID8/Pz8/Pz8/Pz8/Pz8/Pz8/Py0tPjxnIGNsYXNzPSJlbnRpdHkiIGRhdGEtZW50aXR5PSIyLiAmIzEwNTU7JiMxMDg4OyYjMTA4NjsmIzEwODA7JiMxMDc5OyYjMTA3NDsmIzEwODY7JiMxMDc2OyYjMTA4MDsmIzEwOTA7JiMxMDc3OyYjMTA4MzsmIzExMDA7JiMxMDg1OyYjMTA4NjsmIzEwODk7JiMxMDkwOyYjMTEwMDsiIGRhdGEtc291cmNlLWxpbmU9IjI2IiBkYXRhLXVpZD0iZW50MDAxMCIgaWQ9ImVudGl0eV8yLiAmIzEwNTU7JiMxMDg4OyYjMTA4NjsmIzEwODA7JiMxMDc5OyYjMTA3NDsmIzEwODY7JiMxMDc2OyYjMTA4MDsmIzEwOTA7JiMxMDc3OyYjMTA4MzsmIzExMDA7JiMxMDg1OyYjMTA4NjsmIzEwODk7JiMxMDkwOyYjMTEwMDsiPjxyZWN0IGZpbGw9IiNGRkZGRkYiIGhlaWdodD0iMzQuOTg0NCIgcng9IjUiIHJ5PSI1IiBzdHlsZT0ic3Ryb2tlOiMwMDAwMDA7c3Ryb2tlLXdpZHRoOjAuNTsiIHdpZHRoPSIxNjciIHg9IjQzIiB5PSIxNDUuNDg0NCIvPjx0ZXh0IGZpbGw9IiMwMDAwMDAiIGZvbnQtZmFtaWx5PSJBcmlhbCIgZm9udC1zaXplPSIxNCIgbGVuZ3RoQWRqdXN0PSJzcGFjaW5nIiB0ZXh0TGVuZ3RoPSIxNDciIHg9IjUzIiB5PSIxNjguNzE4OCI+Mi4gJiMxMDU1OyYjMTA4ODsmIzEwODY7JiMxMDgwOyYjMTA3OTsmIzEwNzQ7JiMxMDg2OyYjMTA3NjsmIzEwODA7JiMxMDkwOyYjMTA3NzsmIzEwODM7JiMxMTAwOyYjMTA4NTsmIzEwODY7JiMxMDg5OyYjMTA5MDsmIzExMDA7PC90ZXh0PjwvZz48IS0tZW50aXR5IDMuID8/Pz8/Pz8/Pz8/Py0tPjxnIGNsYXNzPSJlbnRpdHkiIGRhdGEtZW50aXR5PSIzLiAmIzEwNTk7JiMxMDg5OyYjMTA5MDsmIzEwODY7JiMxMDgxOyYjMTA5NTsmIzEwODA7JiMxMDc0OyYjMTA4NjsmIzEwODk7JiMxMDkwOyYjMTEwMDsiIGRhdGEtc291cmNlLWxpbmU9IjI3IiBkYXRhLXVpZD0iZW50MDAxMSIgaWQ9ImVudGl0eV8zLiAmIzEwNTk7JiMxMDg5OyYjMTA5MDsmIzEwODY7JiMxMDgxOyYjMTA5NTsmIzEwODA7JiMxMDc0OyYjMTA4NjsmIzEwODk7JiMxMDkwOyYjMTEwMDsiPjxyZWN0IGZpbGw9IiNGRkZGRkYiIGhlaWdodD0iMzQuOTg0NCIgcng9IjUiIHJ5PSI1IiBzdHlsZT0ic3Ryb2tlOiMwMDAwMDA7c3Ryb2tlLXdpZHRoOjAuNTsiIHdpZHRoPSIxMjUiIHg9IjY0IiB5PSI3NS40ODQ0Ii8+PHRleHQgZmlsbD0iIzAwMDAwMCIgZm9udC1mYW1pbHk9IkFyaWFsIiBmb250LXNpemU9IjE0IiBsZW5ndGhBZGp1c3Q9InNwYWNpbmciIHRleHRMZW5ndGg9IjEwNSIgeD0iNzQiIHk9Ijk4LjcxODgiPjMuICYjMTA1OTsmIzEwODk7JiMxMDkwOyYjMTA4NjsmIzEwODE7JiMxMDk1OyYjMTA4MDsmIzEwNzQ7JiMxMDg2OyYjMTA4OTsmIzEwOTA7JiMxMTAwOzwvdGV4dD48L2c+PCEtLWVudGl0eSA0LiA/Pz8/Pz8/Pz8/Pz8/Pz8/LS0+PGcgY2xhc3M9ImVudGl0eSIgZGF0YS1lbnRpdHk9IjQuICYjMTA1MjsmIzEwNzI7JiMxMDg5OyYjMTA5NjsmIzEwOTA7JiMxMDcyOyYjMTA3MzsmIzEwODA7JiMxMDg4OyYjMTA5MTsmIzEwNzc7JiMxMDg0OyYjMTA4NjsmIzEwODk7JiMxMDkwOyYjMTEwMDsiIGRhdGEtc291cmNlLWxpbmU9IjI4IiBkYXRhLXVpZD0iZW50MDAxMiIgaWQ9ImVudGl0eV80LiAmIzEwNTI7JiMxMDcyOyYjMTA4OTsmIzEwOTY7JiMxMDkwOyYjMTA3MjsmIzEwNzM7JiMxMDgwOyYjMTA4ODsmIzEwOTE7JiMxMDc3OyYjMTA4NDsmIzEwODY7JiMxMDg5OyYjMTA5MDsmIzExMDA7Ij48cmVjdCBmaWxsPSIjRkZGRkZGIiBoZWlnaHQ9IjM0Ljk4NDQiIHJ4PSI1IiByeT0iNSIgc3R5bGU9InN0cm9rZTojMDAwMDAwO3N0cm9rZS13aWR0aDowLjU7IiB3aWR0aD0iMTUzIiB4PSIzMTUuNSIgeT0iMjE1LjQ4NDQiLz48dGV4dCBmaWxsPSIjMDAwMDAwIiBmb250LWZhbWlseT0iQXJpYWwiIGZvbnQtc2l6ZT0iMTQiIGxlbmd0aEFkanVzdD0ic3BhY2luZyIgdGV4dExlbmd0aD0iMTMzIiB4PSIzMjUuNSIgeT0iMjM4LjcxODgiPjQuICYjMTA1MjsmIzEwNzI7JiMxMDg5OyYjMTA5NjsmIzEwOTA7JiMxMDcyOyYjMTA3MzsmIzEwODA7JiMxMDg4OyYjMTA5MTsmIzEwNzc7JiMxMDg0OyYjMTA4NjsmIzEwODk7JiMxMDkwOyYjMTEwMDs8L3RleHQ+PC9nPjwhLS1lbnRpdHkgNS4gPz8/Pz8/Pz8gPz8/Pz8/Pz8/Pz8/Py0tPjxnIGNsYXNzPSJlbnRpdHkiIGRhdGEtZW50aXR5PSI1LiAmIzEwNTk7JiMxMDc2OyYjMTA4NjsmIzEwNzM7JiMxMDg5OyYjMTA5MDsmIzEwNzQ7JiMxMDg2OyAmIzEwODA7JiMxMDg5OyYjMTA4NzsmIzEwODY7JiMxMDgzOyYjMTEwMDsmIzEwNzk7JiMxMDg2OyYjMTA3NDsmIzEwNzI7JiMxMDg1OyYjMTA4MDsmIzExMDM7IiBkYXRhLXNvdXJjZS1saW5lPSIyOSIgZGF0YS11aWQ9ImVudDAwMTMiIGlkPSJlbnRpdHlfNS4gJiMxMDU5OyYjMTA3NjsmIzEwODY7JiMxMDczOyYjMTA4OTsmIzEwOTA7JiMxMDc0OyYjMTA4NjsgJiMxMDgwOyYjMTA4OTsmIzEwODc7JiMxMDg2OyYjMTA4MzsmIzExMDA7JiMxMDc5OyYjMTA4NjsmIzEwNzQ7JiMxMDcyOyYjMTA4NTsmIzEwODA7JiMxMTAzOyI+PHJlY3QgZmlsbD0iI0ZGRkZGRiIgaGVpZ2h0PSIzNC45ODQ0IiByeD0iNSIgcnk9IjUiIHN0eWxlPSJzdHJva2U6IzAwMDAwMDtzdHJva2Utd2lkdGg6MC41OyIgd2lkdGg9IjE5NSIgeD0iMjk0LjUiIHk9IjE0NS40ODQ0Ii8+PHRleHQgZmlsbD0iIzAwMDAwMCIgZm9udC1mYW1pbHk9IkFyaWFsIiBmb250LXNpemU9IjE0IiBsZW5ndGhBZGp1c3Q9InNwYWNpbmciIHRleHRMZW5ndGg9IjE3NSIgeD0iMzA0LjUiIHk9IjE2OC43MTg4Ij41LiAmIzEwNTk7JiMxMDc2OyYjMTA4NjsmIzEwNzM7JiMxMDg5OyYjMTA5MDsmIzEwNzQ7JiMxMDg2OyAmIzEwODA7JiMxMDg5OyYjMTA4NzsmIzEwODY7JiMxMDgzOyYjMTEwMDsmIzEwNzk7JiMxMDg2OyYjMTA3NDsmIzEwNzI7JiMxMDg1OyYjMTA4MDsmIzExMDM7PC90ZXh0PjwvZz48IS0tU1JDPVtiTEZSSVhuMTQ3c1Zob1pjMG9HUjVWOFEwdGJKSDF6eVJmbnNqZDVzSGpmVTQ0Tk9zU0dCSDBaYUVIU0lfTzFITjl0cmlsdjJ6SHp2Z2ZWNXJOTTVsNG50THpLdkxVVHFacENrcXlIX1VTMDN0LUx4Vjgtdlh4TmM3bGNsX1drc0RfdUdubTVzNVRfdzR4eHR0X20xU0tzOHpEd2l5THRWMFRpdjRYVDgyNmlfWWhPdEpSd2JoNmZIZVpUS0V0RVZZem1qZ1BRY1p6UWV4Rk55Z2pkTHI5V1JJcmd6eGJJVU9sb3pZNllYaThjc2R1Z2lpQklHZ1ZMRFlNNTlSVDdFYXM1eWhNY1NIZG5iNkJBdmpqSHVYeTJvSVhBSmZwSUZfUUI5SlFsVE1aRTlRckJaV3dHTnJTeHBxN3VLUE5oM2FJbDhjaEpmQTM0b1pJZG9BRGYyS3ZMZ1lsYmljWkRZeE9HcF9kaVNYRDJPaUJXbkdfbTM1R0UtWEU2LXowVW83VHQwUEsyNkdfbUktTHdHUThLRWxhRHlYdmxnMWNuNU0xdm1nMTZpLVBnaEM2MHptSjB4UEYxN3FmWGx5VXJZdWY2NEZlNmEwXzkzQzlVLWQ4M0ZYVDdIMDJ2SzBYLXJXajJOalZFZV9IdGNFbVRkbkxURkpyMVM0V2hxSEs0TFlZdllrTzRkZXQtenpHcF9wLW5fSzdHS1ZlQ0lnOUROUlZxWmtlRVVTMzdabmFwNVlQY2RhV0VZQnZPQVRhZ2pFRlNKS2FqX0I5OG5ULXF4YURWM1hLdDNZOEVkYzRLU2IydlczbS02N24ySXFRd1ZZT19zN200MF0tLT48L2c+PC9zdmc+;" vertex="1" parent="1">
            <mxGeometry x="50" y="440" width="516" height="522" as="geometry" />
          </mxCell>
        </UserObject>
      </root>
    </mxGraphModel>
  </diagram>
</mxfile>
